<svg width="15" height="16" viewBox="0 0 15 16" fill="none" xmlns="http://www.w3.org/2000/svg">
<path d="M6.65715 15.0711C7.04768 15.4616 7.68084 15.4616 8.07136 15.0711L14.4353 8.70711C14.8259 8.31659 14.8259 7.68342 14.4353 7.2929C14.0448 6.90237 13.4116 6.90237 13.0211 7.2929L7.36426 12.9498L1.7074 7.2929C1.31688 6.90237 0.683714 6.90237 0.29319 7.2929C-0.0973344 7.68342 -0.0973344 8.31659 0.29319 8.70711L6.65715 15.0711ZM7.36426 13.0525H6.36426V14.364H7.36426H8.36426V13.0525H7.36426Z" fill="#8B8B8B"/>
<path d="M6.65715 8.07107C7.04768 8.4616 7.68084 8.4616 8.07136 8.07107L14.4353 1.70711C14.8259 1.31659 14.8259 0.683422 14.4353 0.292898C14.0448 -0.0976267 13.4116 -0.0976267 13.0211 0.292898L7.36426 5.94975L1.7074 0.292898C1.31688 -0.0976267 0.683714 -0.0976267 0.29319 0.292898C-0.0973344 0.683422 -0.0973344 1.31659 0.29319 1.70711L6.65715 8.07107ZM7.36426 6.05249H6.36426V7.36397H7.36426H8.36426V6.05249H7.36426Z" fill="#8B8B8B"/>
</svg>
