<svg width="24" height="24" viewBox="0 0 24 24" fill="none" xmlns="http://www.w3.org/2000/svg">
<path d="M14.037 20.9371C13.8543 20.937 13.6752 20.8869 13.519 20.7921L10.185 18.7921C9.80988 18.5659 9.49937 18.2468 9.2834 17.8657C9.06744 17.4845 8.9533 17.0542 8.952 16.6161V12.0911C8.95264 11.7718 8.85334 11.4602 8.668 11.2001L4.013 4.65811C3.9043 4.50709 3.83944 4.32897 3.82557 4.14342C3.81169 3.95786 3.84935 3.77208 3.93438 3.60657C4.01941 3.44106 4.14851 3.30226 4.30743 3.20548C4.46636 3.1087 4.64893 3.0577 4.835 3.05811H19.165C19.3512 3.05734 19.534 3.10811 19.6932 3.20482C19.8523 3.30152 19.9816 3.44038 20.0667 3.60602C20.1518 3.77166 20.1894 3.95762 20.1753 4.14331C20.1613 4.329 20.0961 4.50718 19.987 4.65811L15.332 11.2001C15.1463 11.4601 15.0466 11.7716 15.047 12.0911V19.9251C15.0467 20.1931 14.9403 20.45 14.751 20.6397C14.5617 20.8294 14.305 20.9363 14.037 20.9371ZM4.835 4.06311L9.482 10.6201C9.78998 11.0486 9.95449 11.5635 9.952 12.0911V16.6151C9.95237 16.8806 10.0213 17.1414 10.1522 17.3723C10.2831 17.6033 10.4715 17.7964 10.699 17.9331L14.033 19.9331L14.047 12.0901C14.0448 11.5624 14.2097 11.0474 14.518 10.6191L19.172 4.07711L4.835 4.06311Z" fill="black"/>
</svg>
