<svg width="274" height="58" viewBox="0 0 274 58" fill="none" xmlns="http://www.w3.org/2000/svg">
<path d="M37.1386 1.5281L31.3175 0L26.4119 17.9359L21.9831 1.74325L16.1619 3.27135L20.9469 20.7663L9.02851 9.09003L4.76712 13.2649L17.8401 26.0724L1.55978 21.7987L0 27.5015L17.7883 32.1711C17.5847 31.3106 17.4769 30.4139 17.4769 29.4925C17.4769 22.971 22.8733 17.6843 29.53 17.6843C36.1867 17.6843 41.5831 22.971 41.5831 29.4925C41.5831 30.4079 41.4766 31.2991 41.2755 32.1546L57.4418 36.3983L59.0015 30.6955L41.1424 26.0073L57.4239 21.7333L55.8641 16.0304L38.0057 20.7183L49.9241 9.04209L45.6627 4.86726L32.771 17.4971L37.1386 1.5281Z" fill="#006CFF"/>
<path d="M41.257 32.221C40.7579 34.2881 39.7043 36.1451 38.2585 37.633L49.9703 49.107L54.2317 44.9322L41.257 32.221Z" fill="#006CFF"/>
<path d="M38.1392 37.7531C36.676 39.2172 34.827 40.3098 32.7534 40.8728L37.0151 56.4545L42.8362 54.9263L38.1392 37.7531Z" fill="#006CFF"/>
<path d="M32.5393 40.9297C31.5772 41.172 30.5689 41.3007 29.5297 41.3007C28.4164 41.3007 27.3383 41.1528 26.3149 40.876L22.0493 56.472L27.8704 58L32.5393 40.9297Z" fill="#006CFF"/>
<path d="M26.1091 40.8185C24.0672 40.2275 22.251 39.121 20.8177 37.6527L9.07709 49.1548L13.3385 53.3297L26.1091 40.8185Z" fill="#006CFF"/>
<path d="M20.7151 37.551C19.3064 36.0735 18.2803 34.2413 17.7919 32.2061L1.57275 36.4637L3.13252 42.1665L20.7151 37.551Z" fill="#006CFF"/>
<path d="M80.6936 40L74.5359 18.1818H78.7866L82.7177 34.2152H82.9201L87.1176 18.1818H90.9848L95.1928 34.2259H95.3846L99.3157 18.1818H103.566L97.4088 40H93.5096L89.1417 24.6911H88.9713L84.5927 40H80.6936ZM111.604 40.3196C110.006 40.3196 108.621 39.968 107.45 39.2649C106.278 38.5618 105.369 37.5781 104.722 36.3139C104.083 35.0497 103.764 33.5724 103.764 31.8821C103.764 30.1918 104.083 28.7109 104.722 27.4396C105.369 26.1683 106.278 25.1811 107.45 24.478C108.621 23.7749 110.006 23.4233 111.604 23.4233C113.202 23.4233 114.587 23.7749 115.759 24.478C116.931 25.1811 117.837 26.1683 118.476 27.4396C119.122 28.7109 119.445 30.1918 119.445 31.8821C119.445 33.5724 119.122 35.0497 118.476 36.3139C117.837 37.5781 116.931 38.5618 115.759 39.2649C114.587 39.968 113.202 40.3196 111.604 40.3196ZM111.626 37.2301C112.492 37.2301 113.217 36.9922 113.799 36.5163C114.381 36.0334 114.815 35.3871 115.099 34.5774C115.39 33.7678 115.536 32.8658 115.536 31.8714C115.536 30.87 115.39 29.9645 115.099 29.1548C114.815 28.3381 114.381 27.6882 113.799 27.2053C113.217 26.7223 112.492 26.4808 111.626 26.4808C110.738 26.4808 109.999 26.7223 109.41 27.2053C108.827 27.6882 108.391 28.3381 108.099 29.1548C107.815 29.9645 107.673 30.87 107.673 31.8714C107.673 32.8658 107.815 33.7678 108.099 34.5774C108.391 35.3871 108.827 36.0334 109.41 36.5163C109.999 36.9922 110.738 37.2301 111.626 37.2301ZM122.719 40V23.6364H126.458V26.3636H126.628C126.927 25.419 127.438 24.6911 128.162 24.1797C128.894 23.6612 129.729 23.402 130.666 23.402C130.879 23.402 131.117 23.4126 131.38 23.4339C131.65 23.4482 131.873 23.473 132.051 23.5085V27.0561C131.888 26.9993 131.628 26.9496 131.273 26.907C130.925 26.8572 130.588 26.8324 130.261 26.8324C129.558 26.8324 128.926 26.9851 128.365 27.2905C127.811 27.5888 127.374 28.0043 127.055 28.5369C126.735 29.0696 126.575 29.6839 126.575 30.38V40H122.719ZM138.129 34.8651L138.118 30.2095H138.736L144.617 23.6364H149.123L141.889 31.6903H141.09L138.129 34.8651ZM134.613 40V18.1818H138.47V40H134.613ZM144.883 40L139.556 32.5533L142.156 29.8366L149.496 40H144.883ZM159.305 40V18.1818H173.282V21.495H163.257V27.4183H172.324V30.7315H163.257V40H159.305ZM180.569 18.1818V40H176.713V18.1818H180.569ZM191.673 40.3196C190.075 40.3196 188.69 39.968 187.518 39.2649C186.346 38.5618 185.437 37.5781 184.791 36.3139C184.151 35.0497 183.832 33.5724 183.832 31.8821C183.832 30.1918 184.151 28.7109 184.791 27.4396C185.437 26.1683 186.346 25.1811 187.518 24.478C188.69 23.7749 190.075 23.4233 191.673 23.4233C193.271 23.4233 194.656 23.7749 195.828 24.478C196.999 25.1811 197.905 26.1683 198.544 27.4396C199.191 28.7109 199.514 30.1918 199.514 31.8821C199.514 33.5724 199.191 35.0497 198.544 36.3139C197.905 37.5781 196.999 38.5618 195.828 39.2649C194.656 39.968 193.271 40.3196 191.673 40.3196ZM191.694 37.2301C192.561 37.2301 193.285 36.9922 193.867 36.5163C194.45 36.0334 194.883 35.3871 195.167 34.5774C195.458 33.7678 195.604 32.8658 195.604 31.8714C195.604 30.87 195.458 29.9645 195.167 29.1548C194.883 28.3381 194.45 27.6882 193.867 27.2053C193.285 26.7223 192.561 26.4808 191.694 26.4808C190.806 26.4808 190.068 26.7223 189.478 27.2053C188.896 27.6882 188.459 28.3381 188.168 29.1548C187.884 29.9645 187.742 30.87 187.742 31.8714C187.742 32.8658 187.884 33.7678 188.168 34.5774C188.459 35.3871 188.896 36.0334 189.478 36.5163C190.068 36.9922 190.806 37.2301 191.694 37.2301ZM205.695 40L201.072 23.6364H205.003L207.879 35.142H208.028L210.969 23.6364H214.857L217.798 35.0781H217.957L220.791 23.6364H224.733L220.099 40H216.082L213.014 28.9418H212.791L209.722 40H205.695ZM235.597 23.6364V26.6193H226.19V23.6364H235.597ZM228.512 19.7159H232.369V35.0781C232.369 35.5966 232.447 35.9943 232.603 36.2713C232.767 36.5412 232.98 36.7259 233.242 36.8253C233.505 36.9247 233.796 36.9744 234.116 36.9744C234.357 36.9744 234.578 36.9567 234.776 36.9212C234.982 36.8857 235.139 36.8537 235.245 36.8253L235.895 39.8402C235.689 39.9112 235.394 39.9893 235.011 40.0746C234.634 40.1598 234.173 40.2095 233.626 40.2237C232.66 40.2521 231.79 40.1065 231.016 39.7869C230.242 39.4602 229.627 38.956 229.173 38.2741C228.725 37.5923 228.505 36.7401 228.512 35.7173V19.7159ZM238.822 40V23.6364H242.561V26.3636H242.732C243.03 25.419 243.542 24.6911 244.266 24.1797C244.998 23.6612 245.832 23.402 246.77 23.402C246.983 23.402 247.221 23.4126 247.483 23.4339C247.753 23.4482 247.977 23.473 248.154 23.5085V27.0561C247.991 26.9993 247.732 26.9496 247.377 26.907C247.029 26.8572 246.691 26.8324 246.365 26.8324C245.662 26.8324 245.029 26.9851 244.468 27.2905C243.914 27.5888 243.478 28.0043 243.158 28.5369C242.838 29.0696 242.679 29.6839 242.679 30.38V40H238.822ZM250.717 40V23.6364H254.573V40H250.717ZM252.656 21.3139C252.045 21.3139 251.519 21.1115 251.079 20.7067C250.639 20.2947 250.418 19.8011 250.418 19.2259C250.418 18.6435 250.639 18.1499 251.079 17.745C251.519 17.3331 252.045 17.1271 252.656 17.1271C253.273 17.1271 253.799 17.3331 254.232 17.745C254.673 18.1499 254.893 18.6435 254.893 19.2259C254.893 19.8011 254.673 20.2947 254.232 20.7067C253.799 21.1115 253.273 21.3139 252.656 21.3139ZM261.692 23.6364L264.995 29.6768L268.351 23.6364H272.431L267.498 31.8182L272.516 40H268.457L264.995 34.1087L261.564 40H257.474L262.459 31.8182L257.601 23.6364H261.692Z" fill="black"/>
</svg>
