<svg width="211" height="40" viewBox="0 0 211 40" fill="none" xmlns="http://www.w3.org/2000/svg">
<path d="M25.6128 1.05386L21.5983 0L18.2151 12.3696L15.1608 1.20224L11.1461 2.2561L14.4462 14.3216L6.22656 6.26898L3.28767 9.14818L12.3035 17.981L1.07571 15.0336L0 18.9666L12.2678 22.187C12.1274 21.5935 12.0531 20.9751 12.0531 20.3397C12.0531 15.8421 15.7747 12.1961 20.3655 12.1961C24.9564 12.1961 28.678 15.8421 28.678 20.3397C28.678 20.971 28.6046 21.5856 28.4659 22.1756L39.615 25.1023L40.6907 21.1693L28.3741 17.9361L39.6027 14.9885L38.5269 11.0555L26.2109 14.2885L34.4304 6.23592L31.4915 3.35673L22.6007 12.067L25.6128 1.05386Z" fill="#006CFF"/>
<path d="M28.4532 22.2214C28.109 23.647 27.3823 24.9277 26.3853 25.9538L34.4623 33.8669L37.4012 30.9877L28.4532 22.2214Z" fill="#006CFF"/>
<path d="M26.303 26.0366C25.2939 27.0463 24.0187 27.7998 22.5886 28.1881L25.5277 38.9341L29.5423 37.8802L26.303 26.0366Z" fill="#006CFF"/>
<path d="M22.4409 28.2274C21.7774 28.3945 21.082 28.4833 20.3653 28.4833C19.5975 28.4833 18.854 28.3813 18.1482 28.1904L15.2064 38.9462L19.221 40L22.4409 28.2274Z" fill="#006CFF"/>
<path d="M18.0062 28.1507C16.598 27.7431 15.3455 26.98 14.357 25.9674L6.26001 33.8999L9.1989 36.7791L18.0062 28.1507Z" fill="#006CFF"/>
<path d="M14.2862 25.8973C13.3147 24.8783 12.607 23.6147 12.2702 22.2111L1.08459 25.1474L2.1603 29.0804L14.2862 25.8973Z" fill="#006CFF"/>
<path d="M56.3949 29L51.4688 11.5455H54.8693L58.0142 24.3722H58.1761L61.5341 11.5455H64.6278L67.9943 24.3807H68.1477L71.2926 11.5455H74.6932L69.767 29H66.6477L63.1534 16.7528H63.017L59.5142 29H56.3949ZM81.1236 29.2557C79.8452 29.2557 78.7372 28.9744 77.7997 28.4119C76.8622 27.8494 76.1349 27.0625 75.6179 26.0511C75.1065 25.0398 74.8509 23.858 74.8509 22.5057C74.8509 21.1534 75.1065 19.9687 75.6179 18.9517C76.1349 17.9347 76.8622 17.1449 77.7997 16.5824C78.7372 16.0199 79.8452 15.7386 81.1236 15.7386C82.402 15.7386 83.5099 16.0199 84.4474 16.5824C85.3849 17.1449 86.1094 17.9347 86.6207 18.9517C87.1378 19.9687 87.3963 21.1534 87.3963 22.5057C87.3963 23.858 87.1378 25.0398 86.6207 26.0511C86.1094 27.0625 85.3849 27.8494 84.4474 28.4119C83.5099 28.9744 82.402 29.2557 81.1236 29.2557ZM81.1406 26.7841C81.8338 26.7841 82.4134 26.5937 82.8793 26.2131C83.3452 25.8267 83.6918 25.3097 83.919 24.6619C84.152 24.0142 84.2685 23.2926 84.2685 22.4972C84.2685 21.696 84.152 20.9716 83.919 20.3239C83.6918 19.6705 83.3452 19.1506 82.8793 18.7642C82.4134 18.3778 81.8338 18.1847 81.1406 18.1847C80.4304 18.1847 79.8395 18.3778 79.3679 18.7642C78.902 19.1506 78.5526 19.6705 78.3196 20.3239C78.0923 20.9716 77.9787 21.696 77.9787 22.4972C77.9787 23.2926 78.0923 24.0142 78.3196 24.6619C78.5526 25.3097 78.902 25.8267 79.3679 26.2131C79.8395 26.5937 80.4304 26.7841 81.1406 26.7841ZM90.0149 29V15.9091H93.0064V18.0909H93.1428C93.3814 17.3352 93.7905 16.7528 94.37 16.3438C94.9553 15.929 95.6229 15.7216 96.3729 15.7216C96.5433 15.7216 96.7337 15.7301 96.9439 15.7472C97.1598 15.7585 97.3388 15.7784 97.4808 15.8068V18.6449C97.3501 18.5994 97.1428 18.5597 96.8587 18.5256C96.5803 18.4858 96.3104 18.4659 96.049 18.4659C95.4865 18.4659 94.9808 18.5881 94.532 18.8324C94.0888 19.071 93.7393 19.4034 93.4837 19.8295C93.228 20.2557 93.1001 20.7472 93.1001 21.304V29H90.0149ZM102.343 24.892L102.335 21.1676H102.829L107.533 15.9091H111.138L105.352 22.3523H104.712L102.343 24.892ZM99.5305 29V11.5455H102.616V29H99.5305ZM107.746 29L103.485 23.0426L105.565 20.8693L111.437 29H107.746ZM119.284 29V11.5455H130.466V14.196H122.446V18.9347H129.699V21.5852H122.446V29H119.284ZM136.295 11.5455V29H133.21V11.5455H136.295ZM145.178 29.2557C143.9 29.2557 142.792 28.9744 141.854 28.4119C140.917 27.8494 140.19 27.0625 139.673 26.0511C139.161 25.0398 138.906 23.858 138.906 22.5057C138.906 21.1534 139.161 19.9687 139.673 18.9517C140.19 17.9347 140.917 17.1449 141.854 16.5824C142.792 16.0199 143.9 15.7386 145.178 15.7386C146.457 15.7386 147.565 16.0199 148.502 16.5824C149.44 17.1449 150.164 17.9347 150.675 18.9517C151.192 19.9687 151.451 21.1534 151.451 22.5057C151.451 23.858 151.192 25.0398 150.675 26.0511C150.164 27.0625 149.44 27.8494 148.502 28.4119C147.565 28.9744 146.457 29.2557 145.178 29.2557ZM145.195 26.7841C145.888 26.7841 146.468 26.5937 146.934 26.2131C147.4 25.8267 147.746 25.3097 147.974 24.6619C148.207 24.0142 148.323 23.2926 148.323 22.4972C148.323 21.696 148.207 20.9716 147.974 20.3239C147.746 19.6705 147.4 19.1506 146.934 18.7642C146.468 18.3778 145.888 18.1847 145.195 18.1847C144.485 18.1847 143.894 18.3778 143.423 18.7642C142.957 19.1506 142.607 19.6705 142.374 20.3239C142.147 20.9716 142.033 21.696 142.033 22.4972C142.033 23.2926 142.147 24.0142 142.374 24.6619C142.607 25.3097 142.957 25.8267 143.423 26.2131C143.894 26.5937 144.485 26.7841 145.195 26.7841ZM156.396 29L152.697 15.9091H155.842L158.143 25.1136H158.263L160.615 15.9091H163.726L166.078 25.0625H166.206L168.473 15.9091H171.626L167.919 29H164.706L162.251 20.1534H162.072L159.618 29H156.396ZM180.317 15.9091V18.2955H172.792V15.9091H180.317ZM174.65 12.7727H177.735V25.0625C177.735 25.4773 177.798 25.7955 177.923 26.017C178.053 26.233 178.224 26.3807 178.434 26.4602C178.644 26.5398 178.877 26.5795 179.133 26.5795C179.326 26.5795 179.502 26.5653 179.661 26.5369C179.826 26.5085 179.951 26.483 180.036 26.4602L180.556 28.8722C180.391 28.929 180.156 28.9915 179.849 29.0597C179.548 29.1278 179.178 29.1676 178.741 29.179C177.968 29.2017 177.272 29.0852 176.653 28.8295C176.033 28.5682 175.542 28.1648 175.178 27.6193C174.82 27.0739 174.644 26.392 174.65 25.5739V12.7727ZM182.898 29V15.9091H185.889V18.0909H186.026C186.264 17.3352 186.673 16.7528 187.253 16.3438C187.838 15.929 188.506 15.7216 189.256 15.7216C189.426 15.7216 189.616 15.7301 189.827 15.7472C190.043 15.7585 190.222 15.7784 190.364 15.8068V18.6449C190.233 18.5994 190.026 18.5597 189.741 18.5256C189.463 18.4858 189.193 18.4659 188.932 18.4659C188.369 18.4659 187.864 18.5881 187.415 18.8324C186.972 19.071 186.622 19.4034 186.366 19.8295C186.111 20.2557 185.983 20.7472 185.983 21.304V29H182.898ZM192.413 29V15.9091H195.499V29H192.413ZM193.964 14.0511C193.476 14.0511 193.055 13.8892 192.703 13.5653C192.351 13.2358 192.175 12.8409 192.175 12.3807C192.175 11.9148 192.351 11.5199 192.703 11.196C193.055 10.8665 193.476 10.7017 193.964 10.7017C194.459 10.7017 194.879 10.8665 195.226 11.196C195.578 11.5199 195.754 11.9148 195.754 12.3807C195.754 12.8409 195.578 13.2358 195.226 13.5653C194.879 13.8892 194.459 14.0511 193.964 14.0511ZM201.194 15.9091L203.836 20.7415L206.521 15.9091H209.785L205.839 22.4545L209.853 29H206.606L203.836 24.2869L201.092 29H197.819L201.808 22.4545L197.921 15.9091H201.194Z" fill="black"/>
</svg>
