<svg width="26" height="25" viewBox="0 0 26 25" fill="none" xmlns="http://www.w3.org/2000/svg">
<path d="M11.6396 25C9.44939 25 7.66588 23.2479 7.66588 21.0938C7.66588 20.6625 8.02192 20.3125 8.46062 20.3125C8.89932 20.3125 9.25536 20.6625 9.25536 21.0938C9.25536 22.3866 10.3256 23.4375 11.6396 23.4375C12.9535 23.4375 14.0238 22.3866 14.0238 21.0938C14.0238 20.6625 14.3798 20.3125 14.8185 20.3125C15.2572 20.3125 15.6133 20.6625 15.6133 21.0938C15.6133 23.2479 13.83 25 11.6396 25Z" fill="#FF5252"/>
<path d="M20.3817 21.875H2.89742C1.87489 21.875 1.04309 21.0573 1.04309 20.0521C1.04309 19.5187 1.27942 19.0136 1.69153 18.6666C1.71812 18.6438 1.74664 18.623 1.77632 18.6041C3.33185 17.2697 4.22205 15.35 4.22205 13.3228V10.4166C4.22205 6.39591 7.55042 3.125 11.6396 3.125C11.8092 3.125 11.9925 3.12805 12.1621 3.15628C12.5954 3.22704 12.888 3.63026 12.8158 4.05521C12.7438 4.48017 12.3262 4.7678 11.9013 4.69685C11.8165 4.6833 11.7234 4.6875 11.6396 4.6875C8.42685 4.6875 5.81154 7.25727 5.81154 10.4166V13.3228C5.81154 15.8396 4.68928 18.2209 2.73541 19.8551C2.7195 19.8677 2.70572 19.8792 2.68865 19.8906C2.66012 19.9261 2.63257 19.9802 2.63257 20.0521C2.63257 20.1937 2.75345 20.3125 2.89742 20.3125H20.3817C20.5259 20.3125 20.6468 20.1937 20.6468 20.0521C20.6468 19.9791 20.6192 19.9261 20.5895 19.8906C20.5736 19.8792 20.5598 19.8677 20.5439 19.8551C18.5889 18.2198 17.4678 15.8396 17.4678 13.3228V12.1876C17.4678 11.7563 17.8238 11.4063 18.2625 11.4063C18.7012 11.4063 19.0573 11.7563 19.0573 12.1876V13.3228C19.0573 15.3511 19.9485 17.2718 21.5061 18.6073C21.5346 18.626 21.5622 18.6459 21.5876 18.6678C21.9999 19.0136 22.2362 19.5187 22.2362 20.0521C22.2362 21.0573 21.4044 21.875 20.3817 21.875Z" fill="#FF5252"/>
<path d="M19.0573 10.4166C16.1358 10.4166 13.7589 8.08029 13.7589 5.2084C13.7589 2.3365 16.1358 0 19.0573 0C21.9788 0 24.3554 2.3365 24.3554 5.2084C24.3554 8.08029 21.9788 10.4166 19.0573 10.4166ZM19.0573 1.5625C17.012 1.5625 15.3484 3.19786 15.3484 5.2084C15.3484 7.21874 17.012 8.8541 19.0573 8.8541C21.1023 8.8541 22.7659 7.21874 22.7659 5.2084C22.7659 3.19786 21.1023 1.5625 19.0573 1.5625Z" fill="#FF5252"/>
</svg>
