<svg width="22" height="22" viewBox="0 0 22 22" fill="none" xmlns="http://www.w3.org/2000/svg">
<path d="M10.5965 21.875C8.4063 21.875 6.62279 20.1229 6.62279 17.9688C6.62279 17.5375 6.97883 17.1875 7.41753 17.1875C7.85623 17.1875 8.21227 17.5375 8.21227 17.9688C8.21227 19.2616 9.28253 20.3125 10.5965 20.3125C11.9105 20.3125 12.9807 19.2616 12.9807 17.9688C12.9807 17.5375 13.3368 17.1875 13.7755 17.1875C14.2142 17.1875 14.5702 17.5375 14.5702 17.9688C14.5702 20.1229 12.7869 21.875 10.5965 21.875V21.875Z" fill="#FF5252"/>
<path d="M19.3386 18.75H1.85433C0.8318 18.75 0 17.9323 0 16.9271C0 16.3937 0.236327 15.8886 0.648443 15.5416C0.675025 15.5188 0.703548 15.498 0.733234 15.4791C2.28876 14.1447 3.17896 12.225 3.17896 10.1978V7.2916C3.17896 3.27091 6.50733 0 10.5965 0C10.7661 0 10.9494 0.00305176 11.119 0.0312805C11.5523 0.102043 11.8449 0.505257 11.7727 0.930214C11.7007 1.35517 11.2831 1.6428 10.8582 1.57185C10.7734 1.5583 10.6803 1.5625 10.5965 1.5625C7.38376 1.5625 4.76845 4.13227 4.76845 7.2916V10.1978C4.76845 12.7146 3.64618 15.0959 1.69232 16.7301C1.67641 16.7427 1.66263 16.7542 1.64556 16.7656C1.61703 16.8011 1.58948 16.8552 1.58948 16.9271C1.58948 17.0687 1.71036 17.1875 1.85433 17.1875H19.3386C19.4828 17.1875 19.6037 17.0687 19.6037 16.9271C19.6037 16.8541 19.5761 16.8011 19.5464 16.7656C19.5305 16.7542 19.5168 16.7427 19.5008 16.7301C17.5458 15.0948 16.4247 12.7146 16.4247 10.1978V9.06258C16.4247 8.63132 16.7808 8.28133 17.2195 8.28133C17.6582 8.28133 18.0142 8.63132 18.0142 9.06258V10.1978C18.0142 12.2261 18.9054 14.1468 20.463 15.4823C20.4916 15.501 20.5191 15.5209 20.5445 15.5428C20.9568 15.8886 21.1932 16.3937 21.1932 16.9271C21.1932 17.9323 20.3614 18.75 19.3386 18.75V18.75Z" fill="#FF5252"/>
<path d="M1.85453 18.75H19.3388C20.3614 18.75 21.1932 17.9323 21.1932 16.9271C21.1932 16.3937 20.9568 15.8886 20.5447 15.5416C20.5181 15.5188 20.4896 15.498 20.4599 15.4791C18.9044 14.1447 18.0142 12.225 18.0142 10.1978V7.2916C18.0142 3.27091 14.6858 0 10.5967 0C10.4271 0 10.2437 0.00305176 10.0742 0.0312805C9.64089 0.102043 9.3483 0.505257 9.42048 0.930214C9.49246 1.35517 9.91001 1.6428 10.3349 1.57185C10.4197 1.5583 10.5129 1.5625 10.5967 1.5625C13.8094 1.5625 16.4247 4.13227 16.4247 7.2916V10.1978C16.4247 12.7146 17.547 15.0959 19.5008 16.7301C19.5168 16.7427 19.5305 16.7542 19.5476 16.7656C19.5761 16.8011 19.6037 16.8552 19.6037 16.9271C19.6037 17.0687 19.4828 17.1875 19.3388 17.1875H1.85453C1.71037 17.1875 1.58949 17.0687 1.58949 16.9271C1.58949 16.8541 1.61704 16.8011 1.64672 16.7656C1.66263 16.7542 1.67641 16.7427 1.69232 16.7301C3.64735 15.0948 4.76845 12.7146 4.76845 10.1978V9.06258C4.76845 8.63132 4.41241 8.28133 3.97371 8.28133C3.53501 8.28133 3.17897 8.63132 3.17897 9.06258V10.1978C3.17897 12.2261 2.28779 14.1468 0.730133 15.4823C0.701611 15.501 0.674059 15.5209 0.648641 15.5428C0.23633 15.8886 3.67047e-06 16.3937 3.67047e-06 16.9271C3.67047e-06 17.9323 0.831804 18.75 1.85453 18.75V18.75Z" fill="#FF5252"/>
</svg>
