<svg width="26" height="25" viewBox="0 0 26 25" fill="none" xmlns="http://www.w3.org/2000/svg">
<g clip-path="url(#clip0_7_254)">
<path d="M13.5139 25H11.9178C10.6269 25 9.57658 23.9676 9.57658 22.6986V22.1678C9.02776 21.9954 8.49454 21.7778 7.98228 21.5172L7.59961 21.8934C6.67279 22.8056 5.18817 22.7789 4.28827 21.8931L3.16019 20.7842C2.2587 19.899 2.23277 18.44 3.16049 17.5291L3.54286 17.1532C3.27776 16.6496 3.05647 16.1255 2.88108 15.5859H2.34116C1.0503 15.5859 0 14.5535 0 13.2845V11.7155C0 10.4465 1.0503 9.41406 2.34121 9.41406H2.88113C3.05652 8.87451 3.27781 8.35039 3.54291 7.84683L3.16024 7.4707C2.23307 6.56025 2.25865 5.10117 3.16054 4.21558L4.28872 3.10659C5.1907 2.2187 6.67498 2.19653 7.60001 3.10688L7.98233 3.48271C8.49459 3.22217 9.02781 3.00459 9.57663 2.83218V2.30142C9.57663 1.03242 10.6269 0 11.9178 0H13.5139C14.8048 0 15.8551 1.03242 15.8551 2.30142V2.83223C16.4039 3.00459 16.9371 3.22217 17.4494 3.48276L17.832 3.10659C18.7589 2.19438 20.2435 2.22114 21.1434 3.10693L22.2715 4.21582C23.173 5.10103 23.1989 6.55996 22.2712 7.47095L21.8888 7.84683C22.1539 8.35039 22.3752 8.87446 22.5506 9.41406H23.0905C24.3814 9.41406 25.4317 10.4465 25.4317 11.7155V13.2845C25.4317 14.5535 24.3814 15.5859 23.0905 15.5859H22.5506C22.3752 16.1255 22.1539 16.6496 21.8888 17.1532L22.2715 17.5293C23.1986 18.4398 23.1731 19.8989 22.2712 20.7845L21.143 21.8935C20.241 22.7813 18.7567 22.8035 17.8317 21.8932L17.4494 21.5173C16.9371 21.7779 16.4039 21.9955 15.8551 22.1679V22.6987C15.8551 23.9676 14.8048 25 13.5139 25ZM8.23138 19.979C8.94302 20.3927 9.70895 20.7053 10.5079 20.908C10.8369 20.9914 11.0668 21.2831 11.0668 21.6171V22.6986C11.0668 23.1599 11.4486 23.5352 11.9178 23.5352H13.5139C13.9832 23.5352 14.365 23.1599 14.365 22.6986V21.6171C14.365 21.2831 14.5949 20.9914 14.9239 20.908C15.7228 20.7053 16.4887 20.3927 17.2004 19.979C17.4932 19.8088 17.866 19.8551 18.1065 20.0916L18.8858 20.8576C19.2218 21.1883 19.7613 21.1806 20.089 20.858L21.2179 19.7483C21.5448 19.4273 21.5558 18.8968 21.2182 18.5654L20.4386 17.7991C20.1981 17.5626 20.151 17.1961 20.3241 16.9083C20.745 16.2088 21.0629 15.4559 21.2691 14.6705C21.354 14.3471 21.6507 14.1211 21.9905 14.1211H23.0906C23.5598 14.1211 23.9416 13.7458 23.9416 13.2846V11.7155C23.9416 11.2542 23.5598 10.879 23.0906 10.879H21.9905C21.6507 10.879 21.354 10.653 21.2691 10.3296C21.0629 9.54419 20.7449 8.79126 20.3241 8.09175C20.151 7.80395 20.1981 7.43745 20.4386 7.20103L21.2179 6.43496C21.5548 6.1042 21.546 5.57393 21.2182 5.2521L20.0894 4.14248C19.7622 3.82041 19.2226 3.81099 18.8861 4.14219L18.1066 4.90855C17.8661 5.14502 17.4931 5.19131 17.2004 5.02109C16.4888 4.60737 15.7229 4.29482 14.9239 4.09214C14.5949 4.00869 14.365 3.71699 14.365 3.38296V2.30142C14.365 1.84014 13.9832 1.46484 13.514 1.46484H11.9179C11.4486 1.46484 11.0668 1.84014 11.0668 2.30142V3.38286C11.0668 3.71689 10.8369 4.00859 10.5079 4.09204C9.709 4.29473 8.94307 4.60728 8.23143 5.021C7.93857 5.19116 7.56578 5.14487 7.32528 4.90845L6.54603 4.14238C6.21006 3.81172 5.67048 3.81938 5.34279 4.14204L4.21391 5.25171C3.88698 5.57271 3.87605 6.10313 4.21362 6.43457L4.99321 7.20093C5.23372 7.43735 5.28081 7.80386 5.1077 8.09165C4.68684 8.79116 4.36894 9.54409 4.16275 10.3295C4.07782 10.6529 3.78108 10.8789 3.44133 10.8789H2.34121C1.87196 10.8789 1.49014 11.2542 1.49014 11.7155V13.2845C1.49014 13.7458 1.87196 14.1211 2.34121 14.1211H3.44128C3.78108 14.1211 4.07777 14.3471 4.1627 14.6705C4.36889 15.4559 4.68684 16.2088 5.10765 16.9083C5.28076 17.1961 5.23367 17.5626 4.99316 17.799L4.21387 18.5651C3.87699 18.8959 3.88579 19.4261 4.21357 19.7479L5.34235 20.8576C5.66953 21.1796 6.20916 21.1891 6.54564 20.8579L7.32518 20.0915C7.5024 19.9173 7.87111 19.7695 8.23138 19.979Z" fill="#006CFF"/>
<path d="M12.7158 17.9395C9.66469 17.9395 7.18246 15.4993 7.18246 12.5C7.18246 9.50068 9.66469 7.06055 12.7158 7.06055C15.767 7.06055 18.2492 9.50068 18.2492 12.5C18.2492 15.4993 15.767 17.9395 12.7158 17.9395ZM12.7158 8.52539C10.4863 8.52539 8.6726 10.3084 8.6726 12.5C8.6726 14.6916 10.4864 16.4746 12.7158 16.4746C14.9453 16.4746 16.7591 14.6916 16.7591 12.5C16.7591 10.3084 14.9453 8.52539 12.7158 8.52539Z" fill="#006CFF"/>
</g>
<defs>
<clipPath id="clip0_7_254">
<rect width="25.4317" height="25" fill="white"/>
</clipPath>
</defs>
</svg>
